<?xml version="1.0" encoding="utf-8"?>
<!-- Generator: Adobe Illustrator 26.0.1, SVG Export Plug-In . SVG Version: 6.00 Build 0)  -->
<svg version="1.1" id="Ebene_1" xmlns="http://www.w3.org/2000/svg" xmlns:xlink="http://www.w3.org/1999/xlink" x="0px" y="0px"
	 viewBox="0 0 387 794" style="enable-background:new 0 0 387 794;" xml:space="preserve">
<style type="text/css">
	.st0{fill:#FFFFFF;}
	
		.st1{clip-path:url(#SVGID_00000101796020826514890630000013349095452304281523_);fill:url(#SVGID_00000007426219342293317220000017952235903314479545_);stroke:#9A9A99;stroke-width:0.376;}
	
		.st2{clip-path:url(#SVGID_00000101796020826514890630000013349095452304281523_);fill:url(#SVGID_00000113328241733699040930000005517689905965333384_);stroke:#9A9A99;stroke-width:0.376;}
	
		.st3{clip-path:url(#SVGID_00000101796020826514890630000013349095452304281523_);fill:url(#SVGID_00000160192346743804077180000018133016024480083887_);stroke:#9A9A99;stroke-width:0.376;}
	
		.st4{clip-path:url(#SVGID_00000101796020826514890630000013349095452304281523_);fill:url(#SVGID_00000155847171704563064600000007223802106976482193_);stroke:#9A9A99;stroke-width:0.376;}
	
		.st5{clip-path:url(#SVGID_00000101796020826514890630000013349095452304281523_);fill:url(#SVGID_00000102508201452969563230000012627583412024691387_);}
	.st6{clip-path:url(#SVGID_00000101796020826514890630000013349095452304281523_);fill:#EFEFF2;}
	.st7{clip-path:url(#SVGID_00000101796020826514890630000013349095452304281523_);fill:#3B3B3B;}
	
		.st8{opacity:0.65;clip-path:url(#SVGID_00000101796020826514890630000013349095452304281523_);fill:url(#SVGID_00000065781885903242108720000015587121530947394695_);}
	.st9{clip-path:url(#SVGID_00000101796020826514890630000013349095452304281523_);fill:#FFFFFF;}
	
		.st10{clip-path:url(#SVGID_00000101796020826514890630000013349095452304281523_);fill:url(#SVGID_00000113334788712790198070000014731036202840703138_);}
	.st11{clip-path:url(#SVGID_00000101796020826514890630000013349095452304281523_);fill:#1D1D1B;}
	
		.st12{clip-path:url(#SVGID_00000101796020826514890630000013349095452304281523_);fill:url(#SVGID_00000164507855251199967610000005130924423211205029_);}
	.st13{fill:none;}
</style>
<path class="st0" d="M0,0v794h387V0H0z M373.5,700c0,4-3.3,7.3-7.3,7.3H20.8c-4,0-7.3-3.3-7.3-7.3V74.6c0-4,3.3-7.3,7.3-7.3h345.4
	c4,0,7.3,3.3,7.3,7.3V700z"/>
<g>
	<g>
		<defs>
			<path id="SVGID_1_" d="M1.1-0.4v794.7h384.9V-0.4H1.1z M373.5,700c0,4-3.3,7.3-7.3,7.3H20.8c-4,0-7.3-3.3-7.3-7.3V74.6
				c0-4,3.3-7.3,7.3-7.3h345.4c4,0,7.3,3.3,7.3,7.3V700z"/>
		</defs>
		<clipPath id="SVGID_00000134239073143408863920000015008130511986901386_">
			<use xlink:href="#SVGID_1_"  style="overflow:visible;"/>
		</clipPath>
		
			<linearGradient id="SVGID_00000062886270477668010570000000865424230216784517_" gradientUnits="userSpaceOnUse" x1="2.2432" y1="119.5339" x2="2.2432" y2="155.1055">
			<stop  offset="0" style="stop-color:#666666"/>
			<stop  offset="0.1484" style="stop-color:#F0F0F0"/>
			<stop  offset="0.4048" style="stop-color:#D8D8D8"/>
			<stop  offset="0.8462" style="stop-color:#A6A6A6"/>
			<stop  offset="0.9505" style="stop-color:#666666"/>
			<stop  offset="1" style="stop-color:#A6A6A6"/>
		</linearGradient>
		
			<path style="clip-path:url(#SVGID_00000134239073143408863920000015008130511986901386_);fill:url(#SVGID_00000062886270477668010570000000865424230216784517_);stroke:#9A9A99;stroke-width:0.376;" d="
			M-0.1,151.5c0,1.3,1,2.3,2.3,2.3c1.3,0,2.3-1,2.3-2.3v-31.6c0-1.3-1-2.3-2.3-2.3c-1.3,0-2.3,1-2.3,2.3V151.5z"/>
		
			<linearGradient id="SVGID_00000135687700574564722220000017962606526360565668_" gradientUnits="userSpaceOnUse" x1="2.2432" y1="171.7498" x2="2.2432" y2="214.6025">
			<stop  offset="0" style="stop-color:#666666"/>
			<stop  offset="0.1484" style="stop-color:#F0F0F0"/>
			<stop  offset="0.4048" style="stop-color:#D8D8D8"/>
			<stop  offset="0.8462" style="stop-color:#A6A6A6"/>
			<stop  offset="0.9505" style="stop-color:#666666"/>
			<stop  offset="1" style="stop-color:#A6A6A6"/>
		</linearGradient>
		
			<path style="clip-path:url(#SVGID_00000134239073143408863920000015008130511986901386_);fill:url(#SVGID_00000135687700574564722220000017962606526360565668_);stroke:#9A9A99;stroke-width:0.376;" d="
			M-0.1,210.8c0,1.3,1,2.3,2.3,2.3c1.3,0,2.3-1,2.3-2.3v-38.5c0-1.3-1-2.3-2.3-2.3c-1.3,0-2.3,1-2.3,2.3V210.8z"/>
		
			<linearGradient id="SVGID_00000039096479804754422960000013407585756892722080_" gradientUnits="userSpaceOnUse" x1="2.2432" y1="225.4931" x2="2.2432" y2="267.6108">
			<stop  offset="0" style="stop-color:#666666"/>
			<stop  offset="0.1484" style="stop-color:#F0F0F0"/>
			<stop  offset="0.4048" style="stop-color:#D8D8D8"/>
			<stop  offset="0.8462" style="stop-color:#A6A6A6"/>
			<stop  offset="0.9505" style="stop-color:#666666"/>
			<stop  offset="1" style="stop-color:#A6A6A6"/>
		</linearGradient>
		
			<path style="clip-path:url(#SVGID_00000134239073143408863920000015008130511986901386_);fill:url(#SVGID_00000039096479804754422960000013407585756892722080_);stroke:#9A9A99;stroke-width:0.376;" d="
			M-0.1,265c0,1.3,1,2.3,2.3,2.3c1.3,0,2.3-1,2.3-2.3v-38.5c0-1.3-1-2.3-2.3-2.3c-1.3,0-2.3,1-2.3,2.3V265z"/>
		
			<linearGradient id="SVGID_00000095297273015626233600000008276859463006513558_" gradientUnits="userSpaceOnUse" x1="384.7586" y1="170.2849" x2="384.7586" y2="230.684">
			<stop  offset="0" style="stop-color:#666666"/>
			<stop  offset="0.1484" style="stop-color:#F0F0F0"/>
			<stop  offset="0.4048" style="stop-color:#D8D8D8"/>
			<stop  offset="0.8462" style="stop-color:#A6A6A6"/>
			<stop  offset="0.9505" style="stop-color:#666666"/>
			<stop  offset="1" style="stop-color:#A6A6A6"/>
		</linearGradient>
		
			<path style="clip-path:url(#SVGID_00000134239073143408863920000015008130511986901386_);fill:url(#SVGID_00000095297273015626233600000008276859463006513558_);stroke:#9A9A99;stroke-width:0.376;" d="
			M382.5,230.9c0,1.3,1,2.3,2.3,2.3c1.3,0,2.3-1,2.3-2.3V173c0-1.3-1-2.3-2.3-2.3c-1.3,0-2.3,1-2.3,2.3V230.9z"/>
		
			<linearGradient id="SVGID_00000030446496957538277480000010690933717794506112_" gradientUnits="userSpaceOnUse" x1="193.5" y1="795.2854" x2="193.5" y2="2.5832">
			<stop  offset="0" style="stop-color:#858286"/>
			<stop  offset="0.1982" style="stop-color:#A0A0A6"/>
			<stop  offset="0.415" style="stop-color:#B9BCC4"/>
			<stop  offset="0.5385" style="stop-color:#C2C6CF"/>
			<stop  offset="0.6843" style="stop-color:#B2B4BC"/>
			<stop  offset="0.9799" style="stop-color:#88858A"/>
			<stop  offset="1" style="stop-color:#858286"/>
		</linearGradient>
		
			<path style="clip-path:url(#SVGID_00000134239073143408863920000015008130511986901386_);fill:url(#SVGID_00000030446496957538277480000010690933717794506112_);" d="
			M385.4,170.3c0-0.6,0.2-1.1,0.6-1.5V57.4c0-31.9-25.9-57.8-57.8-57.8H58.9C26.9-0.4,1.1,25.5,1.1,57.4V117
			c0.2,0.3,0.3,0.7,0.3,1.1v35.4c0,0.4-0.1,0.8-0.3,1.1v14.5c0.2,0.3,0.3,0.7,0.3,1.1v42.8c0,0.4-0.1,0.8-0.3,1.1v9.5
			c0.2,0.3,0.3,0.7,0.3,1.1v42.8c0,0.4-0.1,0.8-0.3,1.1v467.8c0,31.9,25.9,57.8,57.8,57.8h269.3c31.9,0,57.8-25.9,57.8-57.8V235.1
			c-0.3-0.4-0.6-0.9-0.6-1.5V170.3z"/>
		<path style="clip-path:url(#SVGID_00000134239073143408863920000015008130511986901386_);fill:#EFEFF2;" d="M6.7,736.6
			c0,28.8,23.4,52.2,52.2,52.2h269.3c28.8,0,52.2-23.4,52.2-52.2V57.4c0-28.8-23.4-52.2-52.2-52.2H58.9C30.1,5.3,6.7,28.6,6.7,57.4
			V736.6z"/>
		<path style="clip-path:url(#SVGID_00000134239073143408863920000015008130511986901386_);fill:#3B3B3B;" d="M169.7,47.8
			c-1.5,0-2.8-1.2-2.8-2.8c0-1.5,1.2-2.8,2.8-2.8h41.7c1.5,0,2.8,1.2,2.8,2.8c0,1.5-1.2,2.8-2.8,2.8H169.7z"/>
		
			<linearGradient id="SVGID_00000100340504037671303840000008909798379622776988_" gradientUnits="userSpaceOnUse" x1="166.8939" y1="42.8804" x2="214.1544" y2="42.8804">
			<stop  offset="0" style="stop-color:#E6E6E6"/>
			<stop  offset="1" style="stop-color:#CCCCCC"/>
		</linearGradient>
		
			<path style="opacity:0.65;clip-path:url(#SVGID_00000134239073143408863920000015008130511986901386_);fill:url(#SVGID_00000100340504037671303840000008909798379622776988_);" d="
			M169.7,42.3h41.7c1.3,0,2.5,1,2.7,2.3c0-0.2,0.1-0.3,0.1-0.5c0-1.5-1.2-2.8-2.8-2.8h-41.7c-1.5,0-2.8,1.2-2.8,2.8
			c0,0.2,0,0.3,0.1,0.5C167.2,43.2,168.3,42.3,169.7,42.3z"/>
		<path style="clip-path:url(#SVGID_00000134239073143408863920000015008130511986901386_);fill:#FFFFFF;" d="M211.4,47.8h-41.7
			c-1.4,0-2.5-1-2.7-2.3c0,0.2-0.1,0.3-0.1,0.5c0,1.5,1.2,2.8,2.8,2.8h41.7c1.5,0,2.8-1.2,2.8-2.8c0-0.2,0-0.3-0.1-0.5
			C213.9,46.8,212.7,47.8,211.4,47.8z"/>
		<path style="clip-path:url(#SVGID_00000134239073143408863920000015008130511986901386_);fill:#3B3B3B;" d="M225.1,45
			c0,1.5-1.2,2.8-2.8,2.8c-1.5,0-2.8-1.2-2.8-2.8c0-1.5,1.2-2.8,2.8-2.8C223.9,42.3,225.1,43.5,225.1,45z"/>
		<path style="clip-path:url(#SVGID_00000134239073143408863920000015008130511986901386_);fill:#FFFFFF;" d="M225.1,44.7
			c0,0.1,0,0.2,0,0.3c0,1.5-1.2,2.8-2.8,2.8c-1.5,0-2.8-1.2-2.8-2.8c0-0.1,0-0.2,0-0.3c-0.1,0.2-0.1,0.5-0.1,0.7
			c0,1.6,1.3,2.8,2.8,2.8c1.6,0,2.8-1.3,2.8-2.8C225.2,45.2,225.1,44.9,225.1,44.7z"/>
		
			<linearGradient id="SVGID_00000157295290602248666210000006583989529358890631_" gradientUnits="userSpaceOnUse" x1="146.3588" y1="747.0726" x2="234.6814" y2="747.0726">
			<stop  offset="0" style="stop-color:#5C5C5C"/>
			<stop  offset="0.3736" style="stop-color:#A1A1A1"/>
			<stop  offset="1" style="stop-color:#1A1A1A"/>
		</linearGradient>
		
			<path style="clip-path:url(#SVGID_00000134239073143408863920000015008130511986901386_);fill:url(#SVGID_00000157295290602248666210000006583989529358890631_);" d="
			M163.5,761.1c-7.8,0-14-6.3-14-14c0-7.8,6.3-14,14-14h54c7.8,0,14,6.3,14,14c0,7.8-6.3,14-14,14H163.5z M163.5,729.9
			c-9.5,0-17.2,7.7-17.2,17.2c0,9.5,7.7,17.2,17.2,17.2h54c9.5,0,17.2-7.7,17.2-17.2c0-9.5-7.7-17.2-17.2-17.2H163.5z"/>
		<path style="clip-path:url(#SVGID_00000134239073143408863920000015008130511986901386_);fill:#FFFFFF;" d="M163.5,734.2h54
			c7.6,0,13.7,6,14,13.5c0-0.2,0-0.4,0-0.6c0-7.8-6.3-14-14-14h-54c-7.8,0-14,6.3-14,14c0,0.2,0,0.4,0,0.6
			C149.8,740.2,156,734.2,163.5,734.2z"/>
		<path style="clip-path:url(#SVGID_00000134239073143408863920000015008130511986901386_);fill:#FFFFFF;" d="M217.5,764.3h-54
			c-9.3,0-16.9-7.4-17.2-16.7c0,0.2,0,0.3,0,0.5c0,9.5,7.7,17.2,17.2,17.2h54c9.5,0,17.2-7.7,17.2-17.2c0-0.2,0-0.3,0-0.5
			C234.4,756.8,226.8,764.3,217.5,764.3z"/>
		<path style="clip-path:url(#SVGID_00000134239073143408863920000015008130511986901386_);fill:#1D1D1B;" d="M328.1-0.4H58.9
			C26.9-0.4,1.1,25.5,1.1,57.4V117c0.2,0.3,0.3,0.7,0.3,1.1v35.4c0,0.4-0.1,0.8-0.3,1.1v14.5c0.2,0.3,0.3,0.7,0.3,1.1v42.8
			c0,0.4-0.1,0.8-0.3,1.1v9.5c0.2,0.3,0.3,0.7,0.3,1.1v42.8c0,0.4-0.1,0.8-0.3,1.1v467.8c0,31.9,25.9,57.8,57.8,57.8h269.3
			c31.9,0,57.8-25.9,57.8-57.8V235.1c-0.3-0.4-0.6-0.9-0.6-1.5v-63.4c0-0.6,0.2-1.1,0.6-1.5V57.4C385.9,25.5,360.1-0.4,328.1-0.4z
			 M384.1,168.2c-0.3,0.6-0.6,1.3-0.6,2h0v63.4c0,0.8,0.2,1.5,0.6,2.1v500.9c-0.1,30.9-25.1,55.9-56,56H58.9
			c-30.9-0.1-55.9-25.1-56-56V269.2c0.2-0.4,0.3-1,0.3-1.5v-42.8c0-0.6-0.1-1.1-0.3-1.5v-8.7c0.2-0.4,0.3-1,0.3-1.5v-42.8
			c0-0.6-0.1-1.1-0.3-1.5v-13.6c0.2-0.4,0.3-1,0.3-1.5v-35.4c0-0.6-0.1-1.1-0.3-1.5V57.4c0.1-30.9,25.1-55.9,56-56h269.3
			c30.9,0.1,55.9,25.1,56,56V168.2z"/>
		
			<linearGradient id="SVGID_00000149371687704970590270000013604981293348396713_" gradientUnits="userSpaceOnUse" x1="2.8831" y1="30.9616" x2="383.997" y2="30.9616">
			<stop  offset="0" style="stop-color:#666666"/>
			<stop  offset="0.1484" style="stop-color:#F0F0F0"/>
			<stop  offset="0.4048" style="stop-color:#D8D8D8"/>
			<stop  offset="0.8462" style="stop-color:#A6A6A6"/>
			<stop  offset="0.9505" style="stop-color:#666666"/>
			<stop  offset="1" style="stop-color:#A6A6A6"/>
		</linearGradient>
		
			<path style="clip-path:url(#SVGID_00000134239073143408863920000015008130511986901386_);fill:url(#SVGID_00000149371687704970590270000013604981293348396713_);" d="
			M328.2,1.6H59.9c-31.7,0-57,25.7-57,57.3v1.4C2.9,28.7,28.2,3,59.9,3h268.3C359.9,3,384,28.7,384,60.3v-1.4
			C384,27.3,359.9,1.6,328.2,1.6z"/>
	</g>
</g>
<rect class="st13" width="387" height="794"/>
</svg>
